<?xml version="1.0" encoding="UTF-8" standalone="no"?>
<!-- Created with Inkscape (http://www.inkscape.org/) -->

<svg
   xmlns:dc="http://purl.org/dc/elements/1.1/"
   xmlns:cc="http://creativecommons.org/ns#"
   xmlns:rdf="http://www.w3.org/1999/02/22-rdf-syntax-ns#"
   xmlns:svg="http://www.w3.org/2000/svg"
   xmlns="http://www.w3.org/2000/svg"
   xmlns:sodipodi="http://sodipodi.sourceforge.net/DTD/sodipodi-0.dtd"
   xmlns:inkscape="http://www.inkscape.org/namespaces/inkscape"
   width="291.20779"
   height="300.56027"
   id="svg2"
   version="1.1"
   inkscape:version="0.48.2 r9819"
   sodipodi:docname="dice.svg">
  <defs
     id="defs4" />
  <sodipodi:namedview
     id="base"
     pagecolor="#ffffff"
     bordercolor="#666666"
     borderopacity="1.0"
     inkscape:pageopacity="0.0"
     inkscape:pageshadow="2"
     inkscape:zoom="2.225"
     inkscape:cx="149.63236"
     inkscape:cy="200.49084"
     inkscape:document-units="px"
     inkscape:current-layer="layer1"
     showgrid="false"
     fit-margin-top="0"
     fit-margin-left="0"
     fit-margin-right="0"
     fit-margin-bottom="0"
     inkscape:window-width="721"
     inkscape:window-height="454"
     inkscape:window-x="0"
     inkscape:window-y="0"
     inkscape:window-maximized="0" />
  <metadata
     id="metadata7">
    <rdf:RDF>
      <cc:Work
         rdf:about="">
        <dc:format>image/svg+xml</dc:format>
        <dc:type
           rdf:resource="http://purl.org/dc/dcmitype/StillImage" />
        <dc:title />
      </cc:Work>
    </rdf:RDF>
  </metadata>
  <g
     inkscape:label="Layer 1"
     inkscape:groupmode="layer"
     id="layer1"
     transform="translate(-292.95406,-742.18214)">
    <path
       style="fill:#608c00;fill-opacity:1"
       d="m 415.38508,1036.7399 c -6.53307,-3.4193 -35.76001,-19.0056 -64.94877,-34.6365 -41.72855,-22.3459 -53.54143,-29.1788 -55.27413,-31.972 -2.08881,-3.3674 -2.20389,-7.5101 -2.20808,-79.4893 -0.004,-62.55627 0.27912,-76.17204 1.6048,-77.27225 1.20336,-0.99871 2.7713,-0.92261 6.21679,0.3017 9.27614,3.29617 123.70866,51.66925 126.39703,53.43075 1.52545,0.9995 3.38854,3.1671 4.1402,4.8168 1.9997,4.3888 1.94742,167.6149 -0.0544,169.6166 -2.16864,2.1686 -3.11022,1.8842 -15.87352,-4.7958 z m -80.52461,-68.2526 c 8.50256,-8.8748 2.81994,-29.8462 -10.4535,-38.578 -12.85497,-8.4566 -24.0351,3.0646 -19.16703,19.7518 5.23824,17.956 20.9108,27.9172 29.62053,18.8262 z m 37.83121,-26.247 c 8.76889,-6.8976 5.52045,-26.3951 -6.15503,-36.9432 -13.02378,-11.7662 -25.94514,-5.8117 -24.8172,11.4365 1.26872,19.401 19.57185,34.4742 30.97223,25.5067 z m 38.82526,-27.8427 c 4.16771,-2.1552 6.95282,-7.9532 6.95282,-14.4743 0,-15.3886 -16.42179,-33.3208 -27.51873,-30.0498 -7.38844,2.1778 -10.37765,6.8367 -10.36256,16.1505 0.0142,8.7733 3.64934,17.0905 10.20822,23.3565 7.26947,6.9449 13.89151,8.5483 20.72025,5.0171 z m 34.48024,127.1932 c -1.15089,-1.1509 -1.47479,-19.8809 -1.4702,-85.018 l 0.006,-83.5419 2.65847,-3.2949 c 3.62119,-4.4882 131.83762,-58.57501 134.65041,-56.80096 1.59653,1.00694 1.85958,10.33339 2.1662,76.80286 0.38598,83.6701 0.65194,80.5032 -7.14763,85.1105 -9.84413,5.8151 -124.94722,67.0891 -127.01463,67.615 -1.30482,0.3319 -3.03664,-0.061 -3.84849,-0.8726 z m 97.72198,-82.9733 c 5.04257,-3.0309 9.36026,-8.7845 12.19938,-16.2565 5.6741,-14.933 -0.81826,-27.7661 -12.91753,-25.5335 -5.94081,1.0962 -15.71738,11.1888 -18.36473,18.9583 -3.94947,11.5911 -1.68441,21.8096 5.51641,24.8867 4.30844,1.841 8.02003,1.2788 13.56647,-2.055 z m -46.97512,-32.3819 c 1.69434,-0.8652 4.83526,-3.5715 6.97979,-6.014 14.65646,-16.6928 9.665,-41.0401 -7.61469,-37.1429 -6.55548,1.4785 -12.56841,6.9176 -16.9516,15.3338 -10.23268,19.6478 0.46204,36.5677 17.5865,27.8231 z m -64.85106,-76.214 c -14.26802,-4.962 -125.56252,-51.56946 -127.5218,-53.40307 -3.62015,-3.38794 -1.54738,-6.60606 6.10464,-9.47792 16.98459,-6.37442 126.85216,-44.95847 128.01864,-44.95847 2.24854,0 131.81226,46.11231 133.5005,47.51342 2.76853,2.29767 1.90997,6.73669 -1.65774,8.5711 -6.35619,3.26818 -125.28568,52.03374 -128.97102,52.88294 -2.46832,0.5688 -5.70109,0.1839 -9.47322,-1.128 z m 14.08738,-46.20494 c 13.33043,-2.18341 19.43576,-7.27364 16.48689,-13.7457 -4.24151,-9.30911 -33.52131,-11.67138 -45.40464,-3.6632 -3.13384,2.11188 -3.92153,3.44006 -3.92153,6.61228 0,5.13065 4.07617,8.27571 13.29061,10.25467 8.61081,1.84931 11.13892,1.91939 19.54867,0.54195 z"
       id="path3074"
       inkscape:connector-curvature="0" />
    <path
       inkscape:connector-curvature="0"
       id="path3076"
       d="m 1133.3177,1012.0208 c -6.5331,-3.4193 -35.76,-19.00557 -64.9488,-34.63648 -41.7285,-22.34592 -53.5414,-29.17882 -55.2741,-31.97202 -2.0888,-3.3674 -2.2039,-7.5101 -2.2081,-79.4893 0,-62.55627 0.2791,-76.17204 1.6048,-77.27225 1.2033,-0.99871 2.7713,-0.92261 6.2168,0.3017 9.2761,3.29617 123.7086,51.66925 126.397,53.43075 1.5255,0.9995 3.3885,3.1671 4.1402,4.8168 1.9997,4.3888 1.9474,167.6149 -0.054,169.6166 -2.1686,2.1686 -3.1102,1.8842 -15.8735,-4.7958 z m -80.5246,-68.2526 c 8.5025,-8.8748 2.8199,-29.8462 -10.4535,-38.578 -12.855,-8.4566 -24.0351,3.0646 -19.1671,19.7518 5.2383,17.956 20.9108,27.9172 29.6206,18.8262 z m 37.8312,-26.247 c 8.7689,-6.8976 5.5204,-26.3951 -6.1551,-36.9432 -13.0237,-11.7662 -25.9451,-5.8117 -24.8172,11.4365 1.2688,19.401 19.5719,34.4742 30.9723,25.5067 z m 38.8252,-27.8427 c 4.1677,-2.1552 6.9528,-7.9532 6.9528,-14.4743 0,-15.3886 -16.4217,-33.3208 -27.5187,-30.0498 -7.3884,2.1778 -10.3776,6.8367 -10.3625,16.1505 0.014,8.7733 3.6493,17.0905 10.2082,23.3565 7.2694,6.9449 13.8915,8.5483 20.7202,5.0171 z m -269.51973,127.1932 c -1.15089,-1.1509 -1.47479,-19.88087 -1.4702,-85.018 l 0.006,-83.5419 2.65847,-3.2949 c 3.62119,-4.4882 131.83757,-58.57501 134.65037,-56.80096 1.5966,1.00694 1.8596,10.33339 2.1662,76.80286 0.386,83.6701 0.652,80.5032 -7.1476,85.1105 -9.8441,5.8151 -124.94721,67.0891 -127.01462,67.615 -1.30482,0.3319 -3.03664,-0.061 -3.84849,-0.8726 z m 97.72194,-82.9733 c 5.0426,-3.0309 9.3603,-8.7845 12.1994,-16.2565 5.6741,-14.933 -0.8182,-27.7661 -12.9175,-25.5335 -5.9408,1.0962 -15.7174,11.1888 -18.3647,18.9583 -3.9495,11.5911 -1.6845,21.8096 5.5164,24.8867 4.3084,1.841 8.02,1.2788 13.5664,-2.055 z m -46.9751,-32.3819 c 1.6944,-0.8652 4.8353,-3.5715 6.9798,-6.014 14.6565,-16.6928 9.665,-41.0401 -7.6147,-37.1429 -6.5555,1.4785 -12.56839,6.9176 -16.95158,15.3338 -10.23268,19.6478 0.46204,36.5677 17.58648,27.8231 z"
       style="fill:#008000"
       sodipodi:nodetypes="cscssssscccsssssssssssssscscscsscccsssscscsssc" />
  </g>
</svg>
