<?xml version="1.0" encoding="UTF-8" standalone="no"?>
<!-- Created with Inkscape (http://www.inkscape.org/) -->

<svg
   xmlns:dc="http://purl.org/dc/elements/1.1/"
   xmlns:cc="http://creativecommons.org/ns#"
   xmlns:rdf="http://www.w3.org/1999/02/22-rdf-syntax-ns#"
   xmlns:svg="http://www.w3.org/2000/svg"
   xmlns="http://www.w3.org/2000/svg"
   xmlns:xlink="http://www.w3.org/1999/xlink"
   xmlns:sodipodi="http://sodipodi.sourceforge.net/DTD/sodipodi-0.dtd"
   xmlns:inkscape="http://www.inkscape.org/namespaces/inkscape"
   width="414.07947"
   height="414.09259"
   id="svg3933"
   version="1.1"
   inkscape:version="0.48.2 r9819"
   sodipodi:docname="flugulogo_gray.svg"
   inkscape:export-filename="/Users/bthj/Developer/Apps/Radiusflugur/assets/graphics/flugulogo_gray_x75.png"
   inkscape:export-xdpi="16.299999"
   inkscape:export-ydpi="16.299999">
  <defs
     id="defs3935">
    <linearGradient
       inkscape:collect="always"
       id="linearGradient4563">
      <stop
         style="stop-color:#000000;stop-opacity:1;"
         offset="0"
         id="stop4565" />
      <stop
         style="stop-color:#000000;stop-opacity:0;"
         offset="1"
         id="stop4567" />
    </linearGradient>
    <linearGradient
       inkscape:collect="always"
       xlink:href="#linearGradient4563"
       id="linearGradient4569"
       x1="281.98448"
       y1="334.99666"
       x2="597.07823"
       y2="334.99666"
       gradientUnits="userSpaceOnUse" />
  </defs>
  <sodipodi:namedview
     id="base"
     pagecolor="#ffffff"
     bordercolor="#666666"
     borderopacity="1.0"
     inkscape:pageopacity="0.0"
     inkscape:pageshadow="2"
     inkscape:zoom="1.0149741"
     inkscape:cx="48.209844"
     inkscape:cy="128.16777"
     inkscape:document-units="px"
     inkscape:current-layer="layer1"
     showgrid="false"
     inkscape:window-width="1215"
     inkscape:window-height="917"
     inkscape:window-x="458"
     inkscape:window-y="0"
     inkscape:window-maximized="0"
     fit-margin-top="0"
     fit-margin-left="0"
     fit-margin-right="0"
     fit-margin-bottom="0"
     showguides="true"
     inkscape:guide-bbox="true" />
  <metadata
     id="metadata3938">
    <rdf:RDF>
      <cc:Work
         rdf:about="">
        <dc:format>image/svg+xml</dc:format>
        <dc:type
           rdf:resource="http://purl.org/dc/dcmitype/StillImage" />
        <dc:title></dc:title>
      </cc:Work>
    </rdf:RDF>
  </metadata>
  <g
     inkscape:label="Layer 1"
     inkscape:groupmode="layer"
     id="layer1"
     transform="translate(-187.73448,-144.10603)">
    <path
       transform="matrix(1.0365854,0,0,1.0365854,265.4958,130.92495)"
       d="m 197.85714,233.37831 a 29.285715,29.285715 0 1 1 -58.57143,0 29.285715,29.285715 0 1 1 58.57143,0 z"
       sodipodi:ry="29.285715"
       sodipodi:rx="29.285715"
       sodipodi:cy="233.37831"
       sodipodi:cx="168.57143"
       id="path4043"
       style="fill:#ffffff;fill-opacity:1;stroke:#ffffff;stroke-width:0;stroke-linecap:round;stroke-miterlimit:4;stroke-opacity:1;stroke-dasharray:none;stroke-dashoffset:0"
       sodipodi:type="arc" />
    <path
       sodipodi:type="arc"
       style="fill:#ffffff;fill-opacity:1;stroke:#ffffff;stroke-width:0;stroke-linecap:round;stroke-miterlimit:4;stroke-opacity:1;stroke-dasharray:none;stroke-dashoffset:0"
       id="path4041"
       sodipodi:cx="168.57143"
       sodipodi:cy="233.37831"
       sodipodi:rx="29.285715"
       sodipodi:ry="29.285715"
       d="m 197.85714,233.37831 a 29.285715,29.285715 0 1 1 -58.57143,0 29.285715,29.285715 0 1 1 58.57143,0 z"
       transform="matrix(1.0365854,0,0,1.0365854,174.78151,130.92495)" />
    <path
       style="fill:#aaaaaa;fill-opacity:1"
       d="M 381.28572,557.93597 C 316.10018,554.30534 254.04638,517.21895 219.23014,461.08363 181.51235,400.27003 177.41789,325.29502 208.3155,261.22205 c 27.03651,-56.06615 77.60076,-96.90101 138.26082,-111.65717 32.4931,-7.90427 70.44219,-7.19743 104.32898,1.94324 25.00129,6.74388 52.51215,20.86303 73.31152,37.625 39.92475,32.17489 65.88708,75.94914 75.28958,126.94336 2.8663,15.5453 3.11355,52.28015 0.45404,67.45705 -4.00427,22.85092 -10.07041,41.4277 -19.96134,61.12907 -33.12041,65.97128 -100.30561,109.90519 -173.21338,113.26812 -7.7,0.35517 -19.175,0.35753 -25.5,0.005 z m 34.14405,-5.91096 c 69.40195,-7.04655 131.77136,-50.81941 161.34253,-113.23539 13.84309,-29.21866 19.6877,-55.06157 19.72404,-87.21314 0.0473,-41.87046 -10.90796,-78.41913 -33.68978,-112.39479 -61.89665,-92.30952 -186.78391,-117.5556 -278.90619,-56.38116 -99.09482,65.80461 -120.5312,201.32969 -46.5549,294.32929 13.11428,16.48667 33.5035,34.57184 51.69983,45.85755 26.83233,16.64194 53.14376,25.27579 89.74042,29.44747 6.94037,0.79114 27.02838,0.56648 36.64405,-0.40983 z m -40.14405,-26.56593 c -17.83721,-2.13902 -38.56733,-8.23646 -55.65924,-16.37132 -46.76003,-22.25532 -81.00788,-63.84869 -94.27274,-114.49246 -4.08208,-15.58493 -5.34747,-28.59019 -4.76946,-49.01882 0.80634,-28.49852 5.32992,-46.83928 17.75812,-72 9.20515,-18.63569 17.68472,-30.3083 33.41672,-46 18.70698,-18.65906 34.38998,-29.20301 57.10106,-38.39002 36.46886,-14.75227 76.30729,-17.04621 113.65819,-6.54457 81.39123,22.8841 135.77753,102.8137 126.71194,186.224 -5.76485,53.04095 -33.36829,98.57927 -77.79382,128.33906 -19.72377,13.21256 -39.86225,21.3743 -65.15077,26.40437 -8.21518,1.63406 -42.44559,2.87559 -51,1.84976 z m 44.5,-2.86467 c 45.5902,-6.58976 86.09427,-30.7407 113.98514,-67.96475 32.28682,-43.09101 42.44383,-98.02455 27.83672,-150.55318 -8.02006,-28.84098 -22.5839,-53.40197 -44.77303,-75.50691 -27.66452,-27.55956 -60.8971,-43.97089 -99.21045,-48.99333 -92.55486,-12.13288 -177.73029,50.86127 -193.35296,143.00024 -4.07536,24.03556 -2.56431,52.86297 3.9527,75.40877 19.69785,68.14524 75.90036,116.23363 146.56188,125.4023 7.84342,1.01772 35.89202,0.52335 45,-0.79314 z m -85.23846,-74.25785 c -1.78115,-0.8866 -3.50106,-2.43938 -3.82201,-3.45061 -0.37578,-1.18398 2.63467,-8.02555 8.45527,-19.21547 l 9.03883,-17.37687 -4.4138,-0.66189 c -10.61229,-1.59141 -22.42707,-10.56998 -26.74056,-20.32133 -4.57529,-10.34319 -3.71105,-23.88496 2.12877,-33.35561 l 2.84984,-4.6217 -7.3695,-5.27046 c -8.86439,-6.33956 -23.36674,-21.10594 -29.26231,-29.79505 -15.92682,-23.47355 -18.52674,-46.94458 -6.46765,-58.38748 7.06507,-6.70406 20.10174,-9.20911 33.34158,-6.40672 10.07195,2.13186 23.85479,8.95606 33,16.33905 10.19549,8.23089 32.40089,33.65618 42.9119,49.13433 6.02616,8.87392 7.80716,8.58455 15.54207,-2.52518 6.95462,-9.989 21.79358,-27.73201 31.93009,-38.17897 12.57499,-12.96013 24.55603,-20.18697 40.0259,-24.14323 9.47822,-2.42395 15.17481,-2.54253 23.09094,-0.48064 13.08296,3.40768 19.83936,12.41438 19.84735,26.45775 0.0129,22.61451 -18.66136,50.55385 -47.80083,71.51688 l -2.80354,2.01688 2.63286,3.87974 c 13.98599,20.60951 -0.0698,50.82381 -25.19392,54.15664 -2.85055,0.37813 -5.18282,0.90402 -5.18282,1.16862 0,0.26461 3.825,7.79432 8.5,16.73269 4.675,8.93837 8.5,17.1772 8.5,18.30851 0,2.50933 -5.61647,6.22004 -9.41454,6.22004 -3.04135,0 -2.28126,1.14848 -13.67152,-20.65729 l -7.91742,-15.15729 -6.85898,3.51912 c -3.77244,1.93551 -9.28416,4.064 -12.24826,4.72997 l -5.38928,1.21086 -0.29183,7.66452 c -0.25094,6.59049 -0.58546,7.82166 -2.38716,8.7859 -2.49678,1.33624 -8.82281,0.5052 -9.97478,-1.31036 -0.44858,-0.70699 -0.8225,-4.54793 -0.83092,-8.53543 -0.0138,-6.55027 -0.20614,-7.25 -1.99248,-7.25 -3.22049,0 -14.70628,-4.68613 -19.39851,-7.91447 l -4.35497,-2.99629 -8.28999,16.20538 c -4.5595,8.91296 -9.15074,17.44288 -10.20277,18.95538 -2.17663,3.12934 -4.71599,3.39891 -9.51505,1.01008 z m 25.31032,-47.93598 c 7.29041,-2.47922 15.47412,-11.0432 17.8574,-18.68717 6.13588,-19.67986 -8.00909,-38.99969 -28.45981,-38.87166 -11.66495,0.073 -21.1669,6.01857 -26.74482,16.73473 -3.83912,7.37563 -3.80103,17.80799 0.094,25.73992 6.76279,13.77196 22.4425,20.12082 37.25323,15.08418 z m -19.1833,-13.22887 c -7.5649,-4.61294 -10.37079,-14.36905 -6.45751,-22.45281 1.72664,-3.56675 3.27651,-5.06527 7.32579,-7.08312 6.25013,-3.11457 8.43815,-3.1763 14.84791,-0.41889 6.96586,2.99663 10.32214,8.69831 9.6798,16.44413 -0.50574,6.09849 -2.59882,9.643 -7.77438,13.16546 -4.31624,2.93761 -13.08845,3.10946 -17.62161,0.34523 z m 111.61144,12.82959 c 5.51479,-2.48931 12.45663,-9.05958 15.24061,-14.42482 3.01028,-5.80138 3.55524,-16.84539 1.15991,-23.50658 -2.33122,-6.4829 -9.70126,-14.31963 -16.11264,-17.13293 -11.23362,-4.9293 -25.90987,-1.64107 -34.0745,7.63444 -17.21733,19.55992 -3.72161,49.51864 22.28662,49.47334 4.87109,-0.008 8.36859,-0.62996 11.5,-2.04345 z m -20.0156,-12.77643 c -7.20522,-3.82886 -10.63368,-13.26534 -7.52377,-20.7084 2.21505,-5.30138 5.02174,-8.07689 10.1469,-10.03421 11.05392,-4.22153 22.39247,4.04853 22.39247,16.33249 0,12.40629 -13.81299,20.36319 -25.0156,14.41012 z M 332.05716,341.65102 c 5.05055,-3.28542 11.17935,-4.75041 18.72844,-4.47673 5.96869,0.21638 6.52988,0.0326 10.63928,-3.48493 4.78356,-4.09455 17.06442,-10.61288 19.9952,-10.61288 1.0261,0 1.86096,-0.5625 1.85524,-1.25 -0.0251,-3.02038 -29.25274,-38.19061 -39.35875,-47.36124 -12.0146,-10.90257 -26.17984,-17.37651 -39.72285,-18.15455 -9.93028,-0.57049 -14.49394,0.58533 -19.43271,4.92163 -10.21813,8.97164 -6.47381,30.71726 8.87468,51.54085 6.00588,8.1483 19.51236,21.23863 27.65003,26.79813 3.575,2.44237 6.62215,4.45518 6.77144,4.47292 0.14929,0.0177 1.94929,-1.0592 4,-2.3932 z m 141.30233,-5.64371 c 28.46102,-21.61663 45.03668,-56.07672 34.57652,-71.8831 -3.21281,-4.85487 -8.55367,-7.35393 -16.78964,-7.8561 -16.21255,-0.98852 -34.71389,7.43752 -49.50526,22.54613 -8.32647,8.50506 -26.34236,29.94752 -31.45407,37.43657 l -3.87306,5.67432 5.23587,1.68844 c 6.49261,2.0937 12.86723,5.69199 17.61048,9.9406 3.3989,3.04445 4.19516,3.27884 12.74554,3.75186 7.6568,0.42359 9.98335,0.97892 14.5,3.46106 6.29231,3.45796 6.04104,3.52851 16.95362,-4.75978 z"
       id="path4006"
       inkscape:connector-curvature="0"
       sodipodi:nodetypes="csssssssssccssssssssssssssssssssssssssssssssscssscsssssssssssscssssssscsscsssssscssssssssssssssssssssscsssssssssssssssscsssssscsssss" />
    <path
       style="fill:#ffffff;stroke:#aaaaaa;stroke-width:1px;stroke-linecap:butt;stroke-linejoin:miter;stroke-opacity:1"
       d="m 368.70568,400.28841 c 1.01015,0 53.53809,-0.25254 53.53809,-0.25254 0,0 -4.99801,18.44054 -27.27411,18.68782 -20.6876,0.22966 -26.26398,-18.43528 -26.26398,-18.43528 z"
       id="path4008"
       inkscape:connector-curvature="0"
       sodipodi:nodetypes="ccsc" />
    <path
       sodipodi:type="spiral"
       style="fill:none;stroke:#aaaaaa;stroke-width:1px;stroke-linecap:butt;stroke-linejoin:miter;stroke-opacity:1"
       id="path4014"
       sodipodi:cx="64.285713"
       sodipodi:cy="266.64789"
       sodipodi:expansion="1"
       sodipodi:revolution="18.973562"
       sodipodi:radius="127.77465"
       sodipodi:argument="-18.707659"
       sodipodi:t0="0"
       d="m 64.285713,266.64789 c 1.002769,0.14325 0.301629,1.42239 -0.238095,1.66667 -1.46262,0.66198 -2.868678,-0.79285 -3.095239,-2.14286 -0.405265,-2.41486 1.778339,-4.37107 4.047621,-4.52381 3.330261,-0.22416 5.90169,2.77131 5.952382,5.95238 0.06756,4.23986 -3.766174,7.44336 -7.857146,7.38095 -5.148071,-0.0785 -8.990557,-4.76174 -8.809525,-9.7619 0.219253,-6.05588 5.757671,-10.54091 11.66667,-10.2381 6.963552,0.35685 12.093237,6.75382 11.666669,13.57143 -0.492489,7.87121 -7.750117,13.64689 -15.476196,13.09524 -8.778862,-0.62681 -15.201456,-8.74652 -14.523812,-17.38096 0.760214,-9.68653 9.742997,-16.7567 19.285721,-15.95238 10.594233,0.89294 18.31245,10.73954 17.380956,21.19048 -1.02517,11.50195 -11.736121,19.86859 -23.095247,18.80953 -12.40968,-1.15701 -21.425028,-12.73274 -20.238098,-25.00001 1.288539,-13.31743 13.729398,-22.98171 26.904771,-21.66667 14.22519,1.41983 24.538599,14.72608 23.095242,28.80954 -1.550916,15.13296 -15.722779,26.09564 -30.714297,24.52381 -16.040748,-1.68184 -27.652829,-16.7195 -25.952385,-32.61906 1.812632,-16.94854 17.716231,-29.21013 34.523822,-27.38096 17.856345,1.94331 30.767522,18.71298 28.809528,36.42859 -2.073883,18.76415 -19.709736,32.325 -38.333347,30.2381 -19.671969,-2.20438 -33.882551,-20.70651 -31.666671,-40.23811 2.334797,-20.57979 21.703282,-35.44017 42.142872,-33.09525 21.487617,2.46516 36.997831,22.70007 34.523811,44.04764 -2.59546,22.39545 -23.696855,38.55555 -45.952394,35.95239 -23.303282,-2.72572 -40.113307,-24.69366 -37.380958,-47.85716 2.855926,-24.21112 25.69046,-41.67111 49.761923,-38.80953 25.118962,2.9861 43.228939,26.68726 40.238099,51.66668 -3.11624,26.02681 -27.684078,44.7868 -53.571445,41.66667 C 30.446291,311.73489 11.03626,286.30034 14.2857,259.50502 c 3.376431,-27.8425 29.677716,-47.90259 57.380973,-44.52381 28.750357,3.50649 49.460537,30.67454 45.952387,59.28573 -3.63652,29.65821 -31.671365,51.01849 -61.190497,47.38096 C 25.862498,317.88136 3.8521004,288.97971 7.6190313,258.55264 11.515565,227.07872 41.284058,204.41819 72.619055,208.31454 c 32.381785,4.02651 55.692455,34.66186 51.666675,66.90479 -4.15648,33.28964 -35.658697,57.25048 -68.809549,53.09524 C 21.278676,324.02815 -3.3323337,291.65904 0.95236288,257.60026 5.3687237,222.49489 38.604737,197.2337 73.571437,201.64787 c 36.013233,4.54629 61.924613,38.64922 57.380963,74.52384 -4.6762,36.92109 -39.646061,63.48268 -76.428601,58.80953 -37.828964,-4.8061 -65.040763,-40.6429 -60.2381046,-78.33336 4.93599086,-38.73683 41.6397486,-66.59885 80.2381236,-61.66668 39.644702,5.06588 68.156942,42.6366 63.095252,82.14289 -5.19575,40.55257 -43.633448,69.71504 -84.047653,64.52382 -41.460439,-5.32562 -71.273155,-44.6303 -65.952391,-85.95241 5.4554753,-42.36831 45.627144,-72.83128 87.857174,-67.38097 43.27618,5.58533 74.3894,46.624 68.80953,89.76194 -5.71517,44.18405 -47.620843,75.94752 -91.666695,70.23811 -45.0919258,-5.84502 -77.505658,-48.6177 -71.666677,-93.57147 5.974849,-45.99979 49.614555,-79.06379 95.476224,-73.09524 46.907678,6.10467 80.621948,50.61141 74.523818,97.38098 -6.2345,47.81555 -51.608263,82.1801 -99.285747,75.9524 -48.7234216,-6.36433 -83.738246,-52.60513 -77.380964,-101.19052 6.494137,-49.63129 53.601979,-85.2964 103.095275,-78.80953 50.539176,6.62394 86.854566,54.59883 80.238106,105.00003 -6.75375,51.44705 -55.59569,88.41274 -106.904799,81.66668 -52.3549248,-6.88355 -89.970903,-56.59255 -83.09525,-108.80956 7.013356,-53.2628 57.589413,-91.52908 110.714325,-84.52382 54.170684,7.14315 93.087254,58.58627 85.952394,112.61909 -7.27295,55.07855 -59.58313,94.64543 -114.523851,87.38096 -55.9864339,-7.40273 -96.203613,-60.57999 -88.809537,-116.42861 7.532521,-56.89431 61.576855,-97.7618 118.333376,-90.23811 57.802192,7.66231 99.319982,62.57372 91.666682,120.23814 -7.79209,58.71007 -63.57058,100.87818 -122.142902,93.09525 -59.617949,-7.92186 -102.43637,-64.56744 -94.523824,-124.04766 8.051641,-60.52583 65.564304,-103.99457 125.952426,-95.9524 61.43371,8.18142 105.55276,66.56117 97.38097,127.85719 -8.31119,62.34159 -67.55803,107.11096 -129.761954,98.80954 C -15.392341,373.20696 -60.812037,313.09302 -52.380985,249.98121 -43.810262,185.82386 17.170774,139.75384 81.190492,148.31452 146.25572,157.01501 192.97606,218.86315 184.28575,283.79076 175.45549,349.76387 112.74026,397.13454 46.904744,388.31459 -19.976245,379.35457 -67.997242,315.77224 -59.047653,249.02882 -49.957879,181.23995 14.491564,132.56863 82.142873,141.64785 142.92261,149.80487 190.02658,202.34668 192.0229,263.55398"
       transform="translate(375.71429,105.71429)" />
    <text
       xml:space="preserve"
       style="font-size:26.24011612px;font-style:normal;font-variant:normal;font-weight:normal;font-stretch:normal;line-height:125%;letter-spacing:0px;word-spacing:0px;fill:#000000;fill-opacity:1;stroke:none;font-family:Serto Urhoy;-inkscape-font-specification:Serto Urhoy"
       id="text4553"
       sodipodi:linespacing="125%"
       transform="matrix(-0.92573452,0.34398535,-0.34398535,-0.92573452,873.60157,544.39163)"><textPath
         xlink:href="#path4648"
         id="textPath4651"><tspan
   style="font-style:normal;font-variant:normal;font-weight:normal;font-stretch:normal;font-family:Serto Urhoy;-inkscape-font-specification:Serto Urhoy"
   id="tspan4555">radíusflugur</tspan></textPath></text>
    <path
       style="font-size:medium;font-style:normal;font-variant:normal;font-weight:normal;font-stretch:normal;text-indent:0;text-align:start;text-decoration:none;line-height:normal;letter-spacing:normal;word-spacing:normal;text-transform:none;direction:ltr;block-progression:tb;writing-mode:lr-tb;text-anchor:start;baseline-shift:baseline;color:#000000;fill:#ffffff;fill-opacity:1;stroke:url(#linearGradient4569);stroke-width:0;marker:none;visibility:visible;display:inline;overflow:visible;enable-background:accumulate;font-family:Sans;-inkscape-font-specification:Sans;stroke-opacity:1"
       d="m 439.51573,177.44978 c -87.01187,0 -157.53125,70.51938 -157.53125,157.53125 0,87.01187 70.51938,157.5625 157.53125,157.5625 87.01187,0 157.5625,-70.55063 157.5625,-157.5625 0,-87.01187 -70.55063,-157.53125 -157.5625,-157.53125 z m 0,0.0937 c 86.95783,0 157.46875,70.47967 157.46875,157.4375 0,86.95783 -70.51092,157.46875 -157.46875,157.46875 -86.95783,0 -157.4375,-70.51092 -157.4375,-157.46875 0,-86.95783 70.47967,-157.4375 157.4375,-157.4375 z"
       id="path4557"
       inkscape:connector-curvature="0" />
    <path
       style="fill:none;stroke:none;stroke-width:1.92252647999999993;stroke-linecap:round;stroke-miterlimit:4;stroke-opacity:1;stroke-dashoffset:0"
       d="m 598.85892,351.05575 c 0,-112.34033 -91.06984,-203.41016 -203.41017,-203.41016 -112.34034,0 -203.41017,91.06983 -203.41017,203.41016 0,112.34034 91.06983,203.41017 203.41017,203.41017 112.34033,0 203.41017,-91.06983 203.41017,-203.41017 z"
       id="path4605"
       inkscape:connector-curvature="0" />
    <path
       style="fill:none;stroke:none;stroke-width:1;stroke-miterlimit:4;stroke-opacity:1"
       d="m 583.41592,351.43863 c 0,-104.16951 -84.44608,-188.61559 -188.61559,-188.61559 -104.16951,0 -188.61559,84.44608 -188.61559,188.61559 0,104.16952 84.44608,188.61559 188.61559,188.61559 104.16951,0 188.61559,-84.44607 188.61559,-188.61559 z"
       id="path4648"
       inkscape:connector-curvature="0" />
  </g>
</svg>
