<?xml version="1.0" encoding="UTF-8" standalone="no"?>
<!-- Created with Inkscape (http://www.inkscape.org/) -->

<svg
   xmlns:dc="http://purl.org/dc/elements/1.1/"
   xmlns:cc="http://creativecommons.org/ns#"
   xmlns:rdf="http://www.w3.org/1999/02/22-rdf-syntax-ns#"
   xmlns:svg="http://www.w3.org/2000/svg"
   xmlns="http://www.w3.org/2000/svg"
   xmlns:sodipodi="http://sodipodi.sourceforge.net/DTD/sodipodi-0.dtd"
   xmlns:inkscape="http://www.inkscape.org/namespaces/inkscape"
   width="292.25964"
   height="230.06137"
   id="svg2"
   version="1.1"
   inkscape:version="0.48.2 r9819"
   sodipodi:docname="radiuslogo.svg">
  <defs
     id="defs4" />
  <sodipodi:namedview
     id="base"
     pagecolor="#ffffff"
     bordercolor="#666666"
     borderopacity="1.0"
     inkscape:pageopacity="0.0"
     inkscape:pageshadow="2"
     inkscape:zoom="1"
     inkscape:cx="752.75598"
     inkscape:cy="31.85021"
     inkscape:document-units="px"
     inkscape:current-layer="layer1"
     showgrid="false"
     fit-margin-top="0"
     fit-margin-left="0"
     fit-margin-right="0"
     fit-margin-bottom="0"
     inkscape:window-width="1247"
     inkscape:window-height="1019"
     inkscape:window-x="0"
     inkscape:window-y="0"
     inkscape:window-maximized="0"
     showguides="true"
     inkscape:guide-bbox="true">
    <sodipodi:guide
       orientation="0,1"
       position="1041.3483,-19.325843"
       id="guide3142" />
    <sodipodi:guide
       orientation="1,0"
       position="851.23595,66.067416"
       id="guide3144" />
    <sodipodi:guide
       orientation="0,1"
       position="1013.9326,211.23595"
       id="guide3146" />
    <sodipodi:guide
       orientation="1,0"
       position="1077.3034,75.505618"
       id="guide3148" />
    <sodipodi:guide
       orientation="1,0"
       position="877.44801,38.771698"
       id="guide3154" />
    <sodipodi:guide
       orientation="1,0"
       position="937.625,66.5"
       id="guide3156" />
  </sodipodi:namedview>
  <metadata
     id="metadata7">
    <rdf:RDF>
      <cc:Work
         rdf:about="">
        <dc:format>image/svg+xml</dc:format>
        <dc:type
           rdf:resource="http://purl.org/dc/dcmitype/StillImage" />
        <dc:title></dc:title>
      </cc:Work>
    </rdf:RDF>
  </metadata>
  <g
     inkscape:label="Layer 1"
     inkscape:groupmode="layer"
     id="layer1"
     transform="translate(-858.45952,-787.96194)">
    <path
       inkscape:connector-curvature="0"
       id="path3076"
       d="m 1133.3177,1012.0208 c -6.5331,-3.4193 -35.76,-19.00557 -64.9488,-34.63648 -41.7285,-22.34592 -53.5414,-29.17882 -55.2741,-31.97202 -2.0888,-3.3674 -2.2039,-7.5101 -2.2081,-79.4893 0,-62.55627 0.2791,-76.17204 1.6048,-77.27225 1.2033,-0.99871 2.7713,-0.92261 6.2168,0.3017 9.2761,3.29617 123.7086,51.66925 126.397,53.43075 1.5255,0.9995 3.3885,3.1671 4.1402,4.8168 1.9997,4.3888 1.9474,167.6149 -0.054,169.6166 -2.1686,2.1686 -3.1102,1.8842 -15.8735,-4.7958 z m -80.5246,-68.2526 c 8.5025,-8.8748 2.8199,-29.8462 -10.4535,-38.578 -12.855,-8.4566 -24.0351,3.0646 -19.1671,19.7518 5.2383,17.956 20.9108,27.9172 29.6206,18.8262 z m 37.8312,-26.247 c 8.7689,-6.8976 5.5204,-26.3951 -6.1551,-36.9432 -13.0237,-11.7662 -25.9451,-5.8117 -24.8172,11.4365 1.2688,19.401 19.5719,34.4742 30.9723,25.5067 z m 38.8252,-27.8427 c 4.1677,-2.1552 6.9528,-7.9532 6.9528,-14.4743 0,-15.3886 -16.4217,-33.3208 -27.5187,-30.0498 -7.3884,2.1778 -10.3776,6.8367 -10.3625,16.1505 0.014,8.7733 3.6493,17.0905 10.2082,23.3565 7.2694,6.9449 13.8915,8.5483 20.7202,5.0171 z m -269.51973,127.1932 c -1.15089,-1.1509 -1.47479,-19.88087 -1.4702,-85.018 l 0.006,-83.5419 2.65847,-3.2949 c 3.62119,-4.4882 131.83757,-58.57501 134.65037,-56.80096 1.5966,1.00694 1.8596,10.33339 2.1662,76.80286 0.386,83.6701 0.652,80.5032 -7.1476,85.1105 -9.8441,5.8151 -124.94721,67.0891 -127.01462,67.615 -1.30482,0.3319 -3.03664,-0.061 -3.84849,-0.8726 z m 97.72194,-82.9733 c 5.0426,-3.0309 9.3603,-8.7845 12.1994,-16.2565 5.6741,-14.933 -0.8182,-27.7661 -12.9175,-25.5335 -5.9408,1.0962 -15.7174,11.1888 -18.3647,18.9583 -3.9495,11.5911 -1.6845,21.8096 5.5164,24.8867 4.3084,1.841 8.02,1.2788 13.5664,-2.055 z m -46.9751,-32.3819 c 1.6944,-0.8652 4.8353,-3.5715 6.9798,-6.014 14.6565,-16.6928 9.665,-41.0401 -7.6147,-37.1429 -6.5555,1.4785 -12.56839,6.9176 -16.95158,15.3338 -10.23268,19.6478 0.46204,36.5677 17.58648,27.8231 z"
       style="fill:#008000"
       sodipodi:nodetypes="cscssssscccsssssssssssssscscscsscccsssscscsssc" />
    <path
       sodipodi:nodetypes="cscssssscccsssssssssssssscscscsscccsssscscsssc"
       style="fill:#008000"
       d="m 1451.0705,1042.5826 c -6.5331,-3.4193 -35.76,-19.0056 -64.9488,-34.6365 -41.7285,-22.34591 -53.5414,-29.17881 -55.2741,-31.97201 -2.0888,-3.3674 -2.2039,-7.5101 -2.2081,-79.4893 0,-62.55627 0.2791,-76.17204 1.6048,-77.27225 1.2033,-0.99871 2.7713,-0.92261 6.2168,0.3017 9.2761,3.29617 123.7086,51.66925 126.397,53.43075 1.5255,0.9995 3.3885,3.1671 4.1402,4.8168 1.9997,4.3888 1.9474,167.61491 -0.054,169.61661 -2.1686,2.1686 -3.1102,1.8842 -15.8735,-4.7958 z m -80.5246,-68.25261 c 8.5025,-8.8748 2.8199,-29.8462 -10.4535,-38.578 -12.855,-8.4566 -24.0351,3.0646 -19.1671,19.7518 5.2383,17.956 20.9108,27.9172 29.6206,18.8262 z m 37.8312,-26.247 c 8.7689,-6.8976 5.5204,-26.3951 -6.1551,-36.9432 -13.0237,-11.7662 -25.9451,-5.8117 -24.8172,11.4365 1.2688,19.401 19.5719,34.4742 30.9723,25.5067 z m 38.8252,-27.8427 c 4.1677,-2.1552 6.9528,-7.9532 6.9528,-14.4743 0,-15.3886 -16.4217,-33.3208 -27.5187,-30.0498 -7.3884,2.1778 -10.3776,6.8367 -10.3625,16.1505 0.014,8.7733 3.6493,17.0905 10.2082,23.3565 7.2694,6.9449 13.8915,8.5483 20.7202,5.0171 z m -245.5197,85.19321 c -1.1509,-1.1509 -1.4782,-19.88089 -1.4702,-85.01801 l 0.01,-83.5419 2.6585,-3.2949 c 3.6213,-4.48814 131.8375,-58.57501 134.6503,-56.80096 1.5966,1.00694 1.8596,10.33339 2.1662,76.80286 0.386,83.6701 0.652,80.5032 -7.1476,85.1105 -9.8441,5.8151 -124.9472,67.08911 -127.0146,67.61501 -1.3048,0.3319 -3.0366,-0.061 -3.8485,-0.8726 z m 97.7219,-82.97331 c 5.0426,-3.0309 9.3603,-8.7845 12.1994,-16.2565 5.6741,-14.933 -0.8182,-27.7661 -12.9175,-25.5335 -5.9408,1.0962 -15.7174,11.1888 -18.3647,18.9583 -3.9495,11.5911 -1.6845,21.8096 5.5164,24.8867 4.3084,1.841 8.02,1.2788 13.5664,-2.055 z m -46.9751,-32.3819 c 1.6944,-0.8652 4.8353,-3.5715 6.9798,-6.014 14.6565,-16.6928 9.665,-41.0401 -7.6147,-37.1429 -6.5555,1.4785 -12.5683,6.9176 -16.9515,15.3338 -10.2327,19.6478 0.462,36.5677 17.5864,27.8231 z"
       id="path3134"
       inkscape:connector-curvature="0" />
    <path
       sodipodi:nodetypes="cscssssscccssssssssssssss"
       style="fill:#008000"
       d="m 1918.4862,1031.7961 c -6.5331,-3.4193 -35.76,-19.0056 -64.9488,-34.6365 -41.7285,-22.34592 -53.5414,-29.17882 -55.2741,-31.97202 -2.0888,-3.3674 -2.2039,-7.5101 -2.2081,-79.4893 0,-62.55627 0.2791,-76.17204 1.6048,-77.27225 1.2033,-0.99871 2.7713,-0.92261 6.2168,0.3017 9.2761,3.29617 123.7086,51.66925 126.397,53.43075 1.5255,0.9995 3.3885,3.1671 4.1402,4.8168 1.9997,4.3888 1.9474,167.61492 -0.054,169.61662 -2.1686,2.1686 -3.1102,1.8842 -15.8735,-4.7958 z m -80.5246,-68.25262 c 8.5025,-8.8748 2.8199,-29.8462 -10.4535,-38.578 -12.855,-8.4566 -24.0351,3.0646 -19.1671,19.7518 5.2383,17.956 20.9108,27.9172 29.6206,18.8262 z m 37.8312,-26.247 c 8.7689,-6.8976 5.5204,-26.3951 -6.1551,-36.9432 -13.0237,-11.7662 -25.9451,-5.8117 -24.8172,11.4365 1.2688,19.401 19.5719,34.4742 30.9723,25.5067 z m 38.8252,-27.8427 c 4.1677,-2.1552 6.9528,-7.9532 6.9528,-14.4743 0,-15.3886 -16.4217,-33.3208 -27.5187,-30.0498 -7.3884,2.1778 -10.3776,6.8367 -10.3625,16.1505 0.014,8.7733 3.6493,17.0905 10.2082,23.3565 7.2694,6.9449 13.8915,8.5483 20.7202,5.0171 z"
       id="path3136"
       inkscape:connector-curvature="0" />
    <text
       xml:space="preserve"
       style="font-size:20.19195175px;font-style:normal;font-variant:normal;font-weight:normal;font-stretch:normal;text-align:start;line-height:125%;letter-spacing:0px;word-spacing:0px;writing-mode:lr-tb;text-anchor:start;fill:#000000;fill-opacity:1;stroke:none;font-family:Sans;-inkscape-font-specification:Sans"
       x="1734.217"
       y="982.76715"
       id="text3138"
       sodipodi:linespacing="125%"><tspan
         sodipodi:role="line"
         id="tspan3140"
         x="1734.217"
         y="982.76715">radíus</tspan></text>
    <text
       xml:space="preserve"
       style="font-size:43.05882263px;font-style:normal;font-weight:normal;line-height:125%;letter-spacing:0px;word-spacing:0px;fill:#000000;fill-opacity:1;stroke:none;font-family:Sans"
       x="1716.9777"
       y="1023.1301"
       id="text3150"
       sodipodi:linespacing="125%"><tspan
         sodipodi:role="line"
         id="tspan3152"
         x="1716.9777"
         y="1023.1301">flugur</tspan></text>
  </g>
</svg>
