<?xml version="1.0" encoding="UTF-8" standalone="no"?>
<!-- Created with Inkscape (http://www.inkscape.org/) -->

<svg
   xmlns:dc="http://purl.org/dc/elements/1.1/"
   xmlns:cc="http://creativecommons.org/ns#"
   xmlns:rdf="http://www.w3.org/1999/02/22-rdf-syntax-ns#"
   xmlns:svg="http://www.w3.org/2000/svg"
   xmlns="http://www.w3.org/2000/svg"
   xmlns:sodipodi="http://sodipodi.sourceforge.net/DTD/sodipodi-0.dtd"
   xmlns:inkscape="http://www.inkscape.org/namespaces/inkscape"
   width="363.24625"
   height="542.33124"
   id="svg4655"
   version="1.1"
   inkscape:version="0.48.2 r9819"
   sodipodi:docname="New document 19">
  <defs
     id="defs4657">
    <clipPath
       id="clipPath4698"
       clipPathUnits="userSpaceOnUse">
      <path
         id="path4700"
         d="M 0,0 512,0 512,512 0,512 0,0 z"
         inkscape:connector-curvature="0" />
    </clipPath>
  </defs>
  <sodipodi:namedview
     id="base"
     pagecolor="#ffffff"
     bordercolor="#666666"
     borderopacity="1.0"
     inkscape:pageopacity="0.0"
     inkscape:pageshadow="2"
     inkscape:zoom="0.35"
     inkscape:cx="132.74897"
     inkscape:cy="271.16563"
     inkscape:document-units="px"
     inkscape:current-layer="layer1"
     showgrid="false"
     fit-margin-top="0"
     fit-margin-left="0"
     fit-margin-right="0"
     fit-margin-bottom="0"
     inkscape:window-width="747"
     inkscape:window-height="733"
     inkscape:window-x="1146"
     inkscape:window-y="118"
     inkscape:window-maximized="0" />
  <metadata
     id="metadata4660">
    <rdf:RDF>
      <cc:Work
         rdf:about="">
        <dc:format>image/svg+xml</dc:format>
        <dc:type
           rdf:resource="http://purl.org/dc/dcmitype/StillImage" />
        <dc:title></dc:title>
      </cc:Work>
    </rdf:RDF>
  </metadata>
  <g
     inkscape:label="Layer 1"
     inkscape:groupmode="layer"
     id="layer1"
     transform="translate(-193.37688,-261.19656)">
    <g
       transform="matrix(1.25,0,0,-1.25,57.08825,852.40006)"
       inkscape:label="Helveticons"
       id="g4690"
       style="fill:#608c00;fill-opacity:1">
      <g
         id="g4692"
         style="fill:#608c00;fill-opacity:1" />
      <g
         id="g4694"
         style="fill:#608c00;fill-opacity:1">
        <g
           clip-path="url(#clipPath4698)"
           id="g4696"
           style="fill:#608c00;fill-opacity:1">
          <path
             id="path4702"
             style="fill:#608c00;fill-opacity:1;fill-rule:nonzero;stroke:none"
             d="m 329.0469,180.2598 c -11.102,0 -21.602,-2.572 -30.949,-7.142 l -54.123,54.129 c 3.98,8.833 6.216,18.63 6.216,28.953 0,10.324 -2.236,20.12 -6.218,28.96 l 53.899,53.899 c 9.4,-4.637 19.981,-7.258 31.175,-7.258 38.983,0 70.581,31.602 70.581,70.583 0,38.98 -31.598,70.579 -70.581,70.579 -38.979,0 -70.576,-31.599 -70.576,-70.579 0,-9.443 1.865,-18.448 5.23,-26.682 l -55.137,-55.136 c -8.839,3.98 -18.632,6.214 -28.953,6.214 -38.981,0 -70.58,-31.598 -70.58,-70.58 0,-38.981 31.599,-70.579 70.58,-70.579 10.325,0 20.118,2.231 28.953,6.214 l 55.236,-55.235 c -3.429,-8.299 -5.329,-17.387 -5.329,-26.923 0,-38.98 31.597,-70.579 70.576,-70.579 38.983,0 70.581,31.599 70.581,70.579 0,38.981 -31.598,70.583 -70.581,70.583"
             inkscape:connector-curvature="0" />
        </g>
      </g>
    </g>
  </g>
</svg>
